<svg xmlns="http://www.w3.org/2000/svg" version="1.1" xmlns:xlink="http://www.w3.org/1999/xlink" xmlns:svgjs="http://svgjs.dev/svgjs" width="1000" height="1000" viewBox="0 0 1000 1000"><rect width="1000" height="1000" fill="#ffffff"></rect><g transform="matrix(0.7,0,0,0.7,150,218.95000000000005)"><svg viewBox="0 0 448 360" data-background-color="#00ceff" preserveAspectRatio="xMidYMid meet" height="803" width="1000" xmlns="http://www.w3.org/2000/svg" xmlns:xlink="http://www.w3.org/1999/xlink"><defs></defs><g id="tight-bounds" transform="matrix(1,0,0,1,0,0)"><svg viewBox="0 0 448 360" height="360" width="448"><g><svg></svg></g><g><svg viewBox="0 0 448 360" height="360" width="448"><g><path d="M193.855 44.683c1.378 0 2.494 1.116 2.495 2.494 0 1.378-1.116 2.494-2.495 2.495h-23.846l-17.167 17.167c-0.973 0.973-2.551 0.973-3.53 0-0.973-0.973-0.973-2.551 0-3.529l13.644-13.645h-40.378c-11.518 0-19.151 2.688-23.815 8.113-4.739 5.519-6.66 14.056-6.66 25.63 0 0.069 0 0.137-0.006 0.206l0.212 36.692 14.692-14.692c0.973-0.973 2.551-0.973 3.53 0 0.973 0.973 0.973 2.551 0 3.53l-18.178 18.178c0.206 35.832 0.193 71.358-0.013 107.19 25.486 25.2 50.617 50.312 75.811 75.791h25.38c1.378 0 2.494 1.116 2.495 2.495 0 1.378-1.116 2.494-2.495 2.494h-20.448l25.942 26.241 0.006-0.006c8.188 8.188 15.577 12.859 22.824 13.413 7.146 0.543 14.442-2.956 22.586-11.093l28.555-28.555h-20.722c-1.378 0-2.494-1.116-2.495-2.494 0-1.378 1.116-2.494 2.495-2.495h25.711l16.625-16.625c0.973-0.973 2.551-0.973 3.529 0 0.973 0.973 0.973 2.551 0 3.53l-13.101 13.102h40.377c11.518 0 19.151-2.688 23.815-8.113 4.739-5.519 6.66-14.056 6.66-25.63h0.013l-0.212-36.898-16.014 16.014c-0.973 0.973-2.551 0.973-3.53 0-0.973-0.973-0.973-2.551 0-3.53l19.5-19.5c-0.206-35.832-0.193-71.358 0.013-107.19-25.486-25.2-50.617-50.312-75.811-75.791h-26.147c-1.378 0-2.494-1.116-2.495-2.495 0-1.378 1.116-2.494 2.495-2.494h21.215l-25.824-26.123c-0.044-0.037-0.081-0.075-0.124-0.112-8.188-8.188-15.577-12.859-22.824-13.413-7.146-0.543-14.442 2.956-22.586 11.093l-28.555 28.555h18.858zM122.578 44.683h45.367l32.078-32.078c9.248-9.248 17.81-13.195 26.484-12.534 8.568 0.649 16.956 5.824 25.985 14.854 0.05 0.05 0.094 0.094 0.137 0.143l29.278 29.615h43.508c13.071 0 21.919 3.268 27.594 9.871 5.6 6.517 7.864 16.101 7.864 28.867 0 0.081-0.006 0.156-0.012 0.23l-0.225 39.742 28.43 28.112 0.006-0.006c9.03 9.03 14.206 17.411 14.854 25.985 0.661 8.674-3.293 17.236-12.534 26.484l-30.768 30.768 0.237 41.843h0.012c0 12.765-2.27 22.35-7.864 28.867-5.675 6.604-14.524 9.872-27.594 9.871h-45.366l-32.078 32.078c-9.248 9.248-17.81 13.195-26.484 12.534-8.568-0.649-16.956-5.824-25.985-14.854l0.006-0.006-29.421-29.758h-43.509c-13.071 0-21.919-3.268-27.594-9.872-5.6-6.517-7.864-16.101-7.863-28.866h0.012l0.231-39.972-28.293-27.969c-0.05-0.044-0.1-0.087-0.143-0.137-9.03-9.03-14.206-17.411-14.854-25.985-0.661-8.674 3.293-17.236 12.534-26.484l30.768-30.768-0.237-41.607c-0.006-0.075-0.012-0.156-0.012-0.23 0-12.765 2.27-22.35 7.864-28.867 5.675-6.604 14.524-9.872 27.594-9.871zM87.682 179.997l-0.274-47.724-27.276 27.276c-8.138 8.138-11.636 15.44-11.094 22.587 0.549 7.246 5.226 14.642 13.413 22.823 0.037 0.037 0.081 0.081 0.113 0.125l24.837 24.551 0.281-49.644zM92.303 241.483l-0.2 35.09h0.013c0 11.58 1.921 20.117 6.66 25.63 4.664 5.432 12.297 8.113 23.815 8.113h38.576l-33.55-33.936-35.308-34.903zM325.415 49.672h-38.575l33.549 33.936 35.308 34.902 0.2-34.884c-0.006-0.069-0.006-0.137-0.007-0.205 0-11.58-1.921-20.117-6.66-25.63-4.664-5.432-12.297-8.113-23.815-8.113zM360.599 130.352l-0.281 49.645 0.274 47.724 27.276-27.276c8.138-8.138 11.636-15.44 11.094-22.587-0.549-7.252-5.226-14.642-13.413-22.824l0.006-0.006-24.956-24.669z" fill="#010c80" data-fill-palette-color="tertiary"></path></g><g transform="matrix(1,0,0,1,132.23644217766997,90)"><svg viewBox="0 0 183.52711564466006 180" height="180" width="183.52711564466006"><g><svg viewBox="0 0 183.52711564466006 180" height="180" width="183.52711564466006"><g><svg viewBox="0 0 224 219.6950562774954" height="180" width="183.52711564466006"><g><svg viewBox="0 0 224 56.32351667332642" height="56.32351667332642" width="224"><g><svg viewBox="0 0 224 56.32351667332642" height="56.32351667332642" width="224"><g><svg viewBox="0 0 224 32.58840169731259" height="32.58840169731259" width="224"><g transform="matrix(1,0,0,1,0,0)"><svg width="224" viewBox="3 -35.25 247.42999267578125 36" height="32.58840169731259" data-palette-color="#010c80"><path d="M3-34.55L9.35-34.55 9.35 0 3 0 3-34.55ZM19.1-34.55L25.55-34.55 16.15-18.9 26.3 0 19.3 0 9.6-18.45 19.1-34.55ZM55-34.55L57.2 0 51.15 0 50.55-14.6Q50.25-22.6 50.25-26L50.25-26 50.3-28.6 45.55-3.8 39.55-3.8 34.6-28.65Q34.65-27.15 34.65-24.05L34.65-24.05Q34.65-18.8 34.45-14.4L34.45-14.4 33.9 0 27.95 0 30.15-34.55 38.15-34.55 42.65-10.2 46.85-34.55 55-34.55ZM62.15-34.55L79.3-34.55 78.65-29.8 68.5-29.8 68.5-19.9 77.35-19.9 77.35-15.2 68.5-15.2 68.5-4.8 79.3-4.8 79.3 0 62.15 0 62.15-34.55ZM92.54-35.25Q95.54-35.25 97.84-34.2 100.14-33.15 102.09-31.05L102.09-31.05 99.14-27.65Q97.59-29.05 96.12-29.75 94.64-30.45 92.99-30.45L92.99-30.45Q91.09-30.45 89.99-29.28 88.89-28.1 88.89-26.2L88.89-26.2Q88.89-24.3 90.04-23.1 91.19-21.9 94.54-20.6L94.54-20.6Q98.84-18.85 100.87-16.5 102.89-14.15 102.89-9.85L102.89-9.85Q102.89-6.9 101.54-4.48 100.19-2.05 97.67-0.65 95.14 0.75 91.79 0.75L91.79 0.75Q88.34 0.75 85.79-0.48 83.24-1.7 81.14-3.95L81.14-3.95 84.34-7.45Q86.14-5.85 87.79-5 89.44-4.15 91.39-4.15L91.39-4.15Q93.69-4.15 94.97-5.58 96.24-7 96.24-9.45L96.24-9.45Q96.24-11.6 95.12-12.98 93.99-14.35 90.94-15.5L90.94-15.5Q86.34-17.35 84.32-19.75 82.29-22.15 82.29-25.75L82.29-25.75Q82.29-28.5 83.62-30.65 84.94-32.8 87.29-34.02 89.64-35.25 92.54-35.25L92.54-35.25ZM115.79-35.25Q118.79-35.25 121.09-34.2 123.39-33.15 125.34-31.05L125.34-31.05 122.39-27.65Q120.84-29.05 119.37-29.75 117.89-30.45 116.24-30.45L116.24-30.45Q114.34-30.45 113.24-29.28 112.14-28.1 112.14-26.2L112.14-26.2Q112.14-24.3 113.29-23.1 114.44-21.9 117.79-20.6L117.79-20.6Q122.09-18.85 124.12-16.5 126.14-14.15 126.14-9.85L126.14-9.85Q126.14-6.9 124.79-4.48 123.44-2.05 120.92-0.65 118.39 0.75 115.04 0.75L115.04 0.75Q111.59 0.75 109.04-0.48 106.49-1.7 104.39-3.95L104.39-3.95 107.59-7.45Q109.39-5.85 111.04-5 112.69-4.15 114.64-4.15L114.64-4.15Q116.94-4.15 118.22-5.58 119.49-7 119.49-9.45L119.49-9.45Q119.49-11.6 118.37-12.98 117.24-14.35 114.19-15.5L114.19-15.5Q109.59-17.35 107.57-19.75 105.54-22.15 105.54-25.75L105.54-25.75Q105.54-28.5 106.87-30.65 108.19-32.8 110.54-34.02 112.89-35.25 115.79-35.25L115.79-35.25ZM130.29-34.55L147.44-34.55 146.79-29.8 136.64-29.8 136.64-19.9 145.49-19.9 145.49-15.2 136.64-15.2 136.64-4.8 147.44-4.8 147.44 0 130.29 0 130.29-34.55ZM173.54-34.55L173.54 0 165.44 0 156.69-28.3Q157.09-24.7 157.31-21.68 157.54-18.65 157.54-14.5L157.54-14.5 157.54 0 151.94 0 151.94-34.55 159.99-34.55 168.74-6.25Q168.44-8.05 168.16-11.35 167.89-14.65 167.89-18.05L167.89-18.05 167.89-34.55 173.54-34.55ZM191.78-35.25Q194.63-35.25 196.88-34.23 199.13-33.2 201.13-31.25L201.13-31.25 197.93-27.95Q196.38-29.3 195.03-29.88 193.68-30.45 191.98-30.45L191.98-30.45Q188.68-30.45 186.81-27.5 184.93-24.55 184.93-17.3L184.93-17.3Q184.93-12.2 185.61-9.33 186.28-6.45 187.61-5.3 188.93-4.15 191.08-4.15L191.08-4.15Q193.33-4.15 195.18-5.4L195.18-5.4 195.18-14.75 191.28-14.75 190.63-19.5 201.23-19.5 201.23-2.6Q199.08-1.05 196.46-0.18 193.83 0.7 191.13 0.7L191.13 0.7Q184.68 0.7 181.48-3.68 178.28-8.05 178.28-17.3L178.28-17.3Q178.28-23.3 180.06-27.33 181.83-31.35 184.88-33.3 187.93-35.25 191.78-35.25L191.78-35.25ZM206.43-34.55L223.58-34.55 222.93-29.8 212.78-29.8 212.78-19.9 221.63-19.9 221.63-15.2 212.78-15.2 212.78-4.8 223.58-4.8 223.58 0 206.43 0 206.43-34.55ZM250.43 0L243.58 0 237.48-13.95 236.88-13.95 234.43-13.95 234.43 0 228.08 0 228.08-34.55 236.23-34.55Q248.73-34.55 248.73-24.4L248.73-24.4Q248.73-21.25 247.33-18.82 245.93-16.4 243.13-15.15L243.13-15.15 250.43 0ZM236.53-18.55Q239.48-18.55 240.8-19.95 242.13-21.35 242.13-24.4L242.13-24.4Q242.13-27.25 240.75-28.58 239.38-29.9 236.23-29.9L236.23-29.9 234.43-29.9 234.43-18.55 236.53-18.55Z" opacity="1" transform="matrix(1,0,0,1,0,0)" fill="#000000" class="undefined-text-0" data-fill-palette-color="primary" id="text-0"></path></svg></g></svg></g><g transform="matrix(1,0,0,1,0,40.281741216407355)"><svg viewBox="0 0 224 16.04177545691906" height="16.04177545691906" width="224"><g transform="matrix(1,0,0,1,0,0)"><svg width="224" viewBox="2.2699999809265137 -40.43000030517578 589.0899658203125 42.189998626708984" height="16.04177545691906" data-palette-color="#0080ff"><path d="M31.37 0L31.37-14.75 33.13-18.07 33.13 0 31.37 0ZM34.89 0L34.89-21.48 36.65-24.8 36.65 0 34.89 0ZM38.4 0L38.4-28.13 40.16-31.47 40.16 0 38.4 0ZM39.7-40.43L26.61-15.58 25.61-17.41 37.72-40.43 39.7-40.43ZM35.72-40.43L24.58-19.41 23.56-21.26 33.72-40.43 35.72-40.43ZM12.82 0L12.82-17.87 14.58-14.55 14.58 0 12.82 0ZM9.3 0L9.3-24.56 11.06-21.24 11.06 0 9.3 0ZM5.79 0L5.79-31.25 7.54-27.91 7.54 0 5.79 0ZM4.25-40.43L20-10.55 18.02-10.55 4.03-37.08 4.03 0 2.27 0 2.27-40.43 4.25-40.43ZM8.25-40.43L23.97-10.55 21.97-10.55 6.25-40.43 8.25-40.43ZM41.92 0L41.92-37.08 27.93-10.55 25.93-10.55 10.23-40.43 12.21-40.43 26.95-12.4 41.67-40.43 43.68-40.43 43.68 0 41.92 0ZM57.1-35.16L57.1 0 55.35 0 55.35-35.16 57.1-35.16ZM53.59-35.16L53.59 0 51.83 0 51.83-35.16 53.59-35.16ZM50.07-35.16L50.07 0 48.32 0 48.32-35.16 50.07-35.16ZM60.62-13.21L60.62-8.79 77.44-8.79 77.44-7.03 60.62-7.03 60.62-5.27 77.44-5.27 77.44-3.52 60.62-3.52 60.62-1.76 77.44-1.76 77.44 0 58.86 0 58.86-35.16 77.44-35.16 77.44-33.4 60.62-33.4 60.62-31.64 77.44-31.64 77.44-29.88 60.62-29.88 60.62-28.13 77.44-28.13 77.44-26.37 60.62-26.37 60.62-22 76.46-22 76.46-20.24 60.62-20.24 60.62-18.48 76.46-18.48 76.46-16.72 60.62-16.72 60.62-14.97 76.46-14.97 76.46-13.21 60.62-13.21ZM97.83-16.72L97.83-16.72 95.04-16.72Q89.92-16.72 87.16-18.81 84.4-20.9 84.4-24.56L84.4-24.56Q84.4-27.98 87.65-30.26 90.89-32.54 96.75-32.54L96.75-32.54Q100.66-32.54 104.04-31.47 107.42-30.4 109.67-28.44L109.67-28.44 108.3-27.34Q106.3-28.98 103.27-29.88 100.24-30.79 96.75-30.79L96.75-30.79Q91.6-30.79 88.88-29.03 86.16-27.27 86.16-24.56L86.16-24.56Q86.16-21.63 88.39-20.06 90.63-18.48 95.04-18.48L95.04-18.48 97.73-18.48Q102.93-18.48 105.7-16.39 108.47-14.31 108.47-10.64L108.47-10.64Q108.47-7.23 105.22-4.94 101.98-2.66 96.12-2.66L96.12-2.66Q92.21-2.66 88.83-3.74 85.45-4.81 83.2-6.76L83.2-6.76 84.57-7.86Q86.57-6.23 89.6-5.32 92.63-4.42 96.12-4.42L96.12-4.42Q101.27-4.42 103.99-6.18 106.71-7.93 106.71-10.64L106.71-10.64Q106.71-13.57 104.48-15.15 102.25-16.72 97.83-16.72ZM97.83-13.21L97.83-13.21 95.04-13.21Q88.26-13.21 84.57-16.3 80.88-19.38 80.88-24.56L80.88-24.56Q80.88-26.93 81.93-29 82.98-31.08 84.95-32.65 86.91-34.23 89.97-35.14 93.02-36.06 96.75-36.06L96.75-36.06Q101.46-36.06 105.57-34.63 109.67-33.2 112.4-30.64L112.4-30.64 110.99-29.59Q108.5-31.84 104.76-33.07 101.03-34.3 96.75-34.3L96.75-34.3Q90.16-34.3 86.4-31.52 82.64-28.74 82.64-24.56L82.64-24.56Q82.64-20.14 85.86-17.55 89.09-14.97 95.04-14.97L95.04-14.97 97.73-14.97Q104.96-14.97 104.96-10.64L104.96-10.64Q104.96-8.69 102.75-7.43 100.54-6.18 96.12-6.18L96.12-6.18Q93.02-6.18 90.36-6.9 87.7-7.62 85.96-8.96L85.96-8.96 87.35-10.03Q90.41-7.93 96.12-7.93L96.12-7.93Q99.78-7.93 101.49-8.69 103.2-9.45 103.2-10.64L103.2-10.64Q103.2-12.04 102-12.62 100.81-13.21 97.83-13.21ZM97.83-20.24L97.83-20.24 95.04-20.24Q87.92-20.24 87.92-24.56L87.92-24.56Q87.92-26.51 90.12-27.77 92.33-29.03 96.75-29.03L96.75-29.03Q99.85-29.03 102.51-28.31 105.18-27.59 106.91-26.25L106.91-26.25 105.52-25.17Q102.47-27.27 96.75-27.27L96.75-27.27Q93.09-27.27 91.38-26.51 89.67-25.76 89.67-24.56L89.67-24.56Q89.67-23.17 90.87-22.58 92.07-22 95.04-22L95.04-22 97.83-22Q104.61-22 108.3-18.91 111.99-15.82 111.99-10.64L111.99-10.64Q111.99-8.28 110.94-6.2 109.89-4.13 107.92-2.55 105.96-0.98 102.91-0.06 99.85 0.85 96.12 0.85L96.12 0.85Q91.41 0.85 87.3-0.57 83.2-2 80.47-4.57L80.47-4.57 81.88-5.62Q84.38-3.37 88.11-2.14 91.85-0.9 96.12-0.9L96.12-0.9Q102.71-0.9 106.47-3.69 110.23-6.47 110.23-10.64L110.23-10.64Q110.23-15.06 107.01-17.65 103.78-20.24 97.83-20.24ZM131.98-16.72L131.98-16.72 129.2-16.72Q124.07-16.72 121.31-18.81 118.55-20.9 118.55-24.56L118.55-24.56Q118.55-27.98 121.8-30.26 125.05-32.54 130.91-32.54L130.91-32.54Q134.81-32.54 138.2-31.47 141.58-30.4 143.82-28.44L143.82-28.44 142.46-27.34Q140.45-28.98 137.43-29.88 134.4-30.79 130.91-30.79L130.91-30.79Q125.76-30.79 123.03-29.03 120.31-27.27 120.31-24.56L120.31-24.56Q120.31-21.63 122.55-20.06 124.78-18.48 129.2-18.48L129.2-18.48 131.88-18.48Q137.08-18.48 139.86-16.39 142.63-14.31 142.63-10.64L142.63-10.64Q142.63-7.23 139.38-4.94 136.13-2.66 130.27-2.66L130.27-2.66Q126.37-2.66 122.99-3.74 119.6-4.81 117.36-6.76L117.36-6.76 118.73-7.86Q120.73-6.23 123.75-5.32 126.78-4.42 130.27-4.42L130.27-4.42Q135.42-4.42 138.15-6.18 140.87-7.93 140.87-10.64L140.87-10.64Q140.87-13.57 138.64-15.15 136.4-16.72 131.98-16.72ZM131.98-13.21L131.98-13.21 129.2-13.21Q122.41-13.21 118.73-16.3 115.04-19.38 115.04-24.56L115.04-24.56Q115.04-26.93 116.09-29 117.14-31.08 119.1-32.65 121.07-34.23 124.12-35.14 127.17-36.06 130.91-36.06L130.91-36.06Q135.62-36.06 139.72-34.63 143.82-33.2 146.56-30.64L146.56-30.64 145.14-29.59Q142.65-31.84 138.92-33.07 135.18-34.3 130.91-34.3L130.91-34.3Q124.32-34.3 120.56-31.52 116.8-28.74 116.8-24.56L116.8-24.56Q116.8-20.14 120.02-17.55 123.24-14.97 129.2-14.97L129.2-14.97 131.88-14.97Q139.11-14.97 139.11-10.64L139.11-10.64Q139.11-8.69 136.9-7.43 134.69-6.18 130.27-6.18L130.27-6.18Q127.17-6.18 124.51-6.9 121.85-7.62 120.12-8.96L120.12-8.96 121.51-10.03Q124.56-7.93 130.27-7.93L130.27-7.93Q133.94-7.93 135.64-8.69 137.35-9.45 137.35-10.64L137.35-10.64Q137.35-12.04 136.16-12.62 134.96-13.21 131.98-13.21ZM131.98-20.24L131.98-20.24 129.2-20.24Q122.07-20.24 122.07-24.56L122.07-24.56Q122.07-26.51 124.28-27.77 126.49-29.03 130.91-29.03L130.91-29.03Q134.01-29.03 136.67-28.31 139.33-27.59 141.06-26.25L141.06-26.25 139.67-25.17Q136.62-27.27 130.91-27.27L130.91-27.27Q127.25-27.27 125.54-26.51 123.83-25.76 123.83-24.56L123.83-24.56Q123.83-23.17 125.02-22.58 126.22-22 129.2-22L129.2-22 131.98-22Q138.77-22 142.46-18.91 146.14-15.82 146.14-10.64L146.14-10.64Q146.14-8.28 145.09-6.2 144.04-4.13 142.08-2.55 140.11-0.98 137.06-0.06 134.01 0.85 130.27 0.85L130.27 0.85Q125.56 0.85 121.46-0.57 117.36-2 114.62-4.57L114.62-4.57 116.04-5.62Q118.53-3.37 122.27-2.14 126-0.9 130.27-0.9L130.27-0.9Q136.87-0.9 140.63-3.69 144.38-6.47 144.38-10.64L144.38-10.64Q144.38-15.06 141.16-17.65 137.94-20.24 131.98-20.24ZM174.93 0L174.93-17.33Q174.93-20.46 173-22.17 171.07-23.88 167.9-23.88L167.9-23.88Q165.21-23.88 163.28-22.02 161.35-20.17 161.35-17.58L161.35-17.58Q161.35-16.11 161.74-14.95 162.13-13.79 162.81-13.02 163.48-12.26 164.4-11.76 165.33-11.25 166.35-11.04 167.36-10.82 168.51-10.82L168.51-10.82Q171.29-10.82 173.58-12.18L173.58-12.18 173.58-10.42Q171.22-9.18 168.48-9.18L168.48-9.18Q166.72-9.18 165.17-9.66 163.62-10.13 162.35-11.1 161.08-12.06 160.34-13.73 159.59-15.41 159.59-17.58L159.59-17.58Q159.59-20.95 161.96-23.29 164.33-25.63 167.9-25.63L167.9-25.63Q171.83-25.63 174.26-23.43 176.68-21.22 176.68-17.33L176.68-17.33 176.68 0 174.93 0ZM180.2-17.33L180.2-17.33 180.2 0 178.44 0 178.44-17.33Q178.44-21.95 175.49-24.67 172.53-27.39 167.9-27.39L167.9-27.39Q163.6-27.39 160.72-24.54 157.84-21.68 157.84-17.58L157.84-17.58Q157.84-15.09 158.7-13.11 159.57-11.13 161.06-9.94 162.55-8.74 164.39-8.12 166.24-7.5 168.29-7.5L168.29-7.5Q171.07-7.5 173.58-8.79L173.58-8.79 173.58-6.93Q170.95-5.83 168.26-5.83L168.26-5.83Q165.84-5.83 163.67-6.58 161.5-7.32 159.79-8.75 158.08-10.18 157.08-12.46 156.08-14.75 156.08-17.58L156.08-17.58Q156.08-22.39 159.48-25.77 162.89-29.15 167.9-29.15L167.9-29.15Q171.41-29.15 174.19-27.72 176.98-26.29 178.59-23.58 180.2-20.87 180.2-17.33ZM183.72-17.33L183.72-17.33 183.72 0 181.96 0 181.96-17.33Q181.96-21.36 180.11-24.48 178.27-27.59 175.07-29.25 171.88-30.91 167.9-30.91L167.9-30.91Q164.11-30.91 160.99-29.11 157.86-27.32 156.09-24.27 154.32-21.22 154.32-17.58L154.32-17.58Q154.32-14.45 155.47-11.88 156.62-9.3 158.56-7.64 160.5-5.98 162.98-5.07 165.45-4.15 168.16-4.15L168.16-4.15Q170.92-4.15 173.58-5.3L173.58-5.3 173.58-3.52Q170.8-2.47 168.12-2.47L168.12-2.47Q163.89-2.47 160.35-4.37 156.81-6.27 154.69-9.77 152.56-13.26 152.56-17.58L152.56-17.58Q152.56-20.65 153.75-23.44 154.93-26.22 156.96-28.25 158.98-30.27 161.84-31.47 164.7-32.67 167.9-32.67L167.9-32.67Q172.36-32.67 175.96-30.76 179.57-28.86 181.64-25.34 183.72-21.83 183.72-17.33ZM187.23-17.33L187.23-17.33 187.23 0 185.47 0 185.47-17.33Q185.47-22.31 183.15-26.23 180.83-30.15 176.83-32.29 172.83-34.42 167.9-34.42L167.9-34.42Q163.16-34.42 159.23-32.15 155.3-29.88 153.05-26.01 150.81-22.14 150.81-17.58L150.81-17.58Q150.81-14.58 151.77-11.88 152.73-9.18 154.41-7.17 156.08-5.15 158.26-3.69 160.45-2.22 162.98-1.46 165.5-0.71 168.12-0.71L168.12-0.71Q171-0.71 173.58-1.81L173.58-1.81 173.58 0Q170.87 0.95 168.02 0.95L168.02 0.95Q165.06 0.95 162.27 0.12 159.47-0.71 157.09-2.33 154.71-3.96 152.91-6.16 151.1-8.37 150.07-11.33 149.05-14.28 149.05-17.58L149.05-17.58Q149.05-21.36 150.48-24.79 151.9-28.22 154.38-30.73 156.86-33.23 160.39-34.7 163.92-36.18 167.9-36.18L167.9-36.18Q171.95-36.18 175.51-34.81 179.08-33.45 181.67-31.02 184.25-28.59 185.74-25.05 187.23-21.51 187.23-17.33ZM216.31-12.62L216.31-17.82 218.07-17.82 218.07 0Q214.16 1.76 209.99 1.76L209.99 1.76Q206.05 1.76 202.48 0.22 198.9-1.32 196.31-3.91 193.73-6.49 192.19-10.07 190.65-13.65 190.65-17.58 190.65-21.51 192.19-25.09 193.73-28.66 196.31-31.25 198.9-33.84 202.48-35.38 206.05-36.91 209.99-36.91L209.99-36.91Q214.48-36.91 218.43-34.97 222.39-33.03 225.1-29.64L225.1-29.64 223.68-28.59Q221.22-31.64 217.64-33.4 214.06-35.16 209.99-35.16L209.99-35.16Q206.42-35.16 203.16-33.76 199.9-32.37 197.55-30.02 195.19-27.66 193.8-24.4 192.41-21.14 192.41-17.58 192.41-14.01 193.8-10.75 195.19-7.5 197.55-5.14 199.9-2.78 203.16-1.39 206.42 0 209.99 0L209.99 0Q213.28 0 216.31-1.17L216.31-1.17 216.31-2.98Q213.26-1.76 209.99-1.76L209.99-1.76Q206.76-1.76 203.83-3.02 200.9-4.27 198.79-6.38 196.68-8.5 195.42-11.43 194.17-14.36 194.17-17.58 194.17-20.8 195.42-23.73 196.68-26.66 198.79-28.77 200.9-30.88 203.83-32.14 206.76-33.4 209.99-33.4L209.99-33.4Q213.67-33.4 216.91-31.81 220.14-30.22 222.36-27.44L222.36-27.44 221-26.34Q219.02-28.81 216.14-30.22 213.26-31.64 209.99-31.64L209.99-31.64Q207.13-31.64 204.53-30.53 201.93-29.42 200.04-27.53 198.14-25.63 197.03-23.03 195.92-20.43 195.92-17.58 195.92-14.72 197.03-12.12 198.14-9.52 200.04-7.63 201.93-5.74 204.53-4.63 207.13-3.52 209.99-3.52L209.99-3.52Q213.35-3.52 216.31-4.88L216.31-4.88 216.31-6.69Q213.35-5.27 209.99-5.27L209.99-5.27Q206.64-5.27 203.81-6.92 200.98-8.57 199.33-11.4 197.68-14.23 197.68-17.58 197.68-20.92 199.33-23.75 200.98-26.59 203.81-28.23 206.64-29.88 209.99-29.88L209.99-29.88Q212.84-29.88 215.37-28.65 217.9-27.42 219.6-25.24L219.6-25.24 218.21-24.17Q216.75-26.03 214.59-27.08 212.43-28.13 209.99-28.13L209.99-28.13Q205.62-28.13 202.53-25.02 199.44-21.92 199.44-17.58 199.44-13.23 202.53-10.13 205.62-7.03 209.99-7.03L209.99-7.03Q213.4-7.03 216.31-8.69L216.31-8.69 216.31-10.47Q213.45-8.79 209.99-8.79L209.99-8.79Q206.35-8.79 203.77-11.36 201.2-13.94 201.2-17.58 201.2-21.22 203.77-23.79 206.35-26.37 209.99-26.37L209.99-26.37Q212.04-26.37 213.84-25.48 215.65-24.58 216.87-23.05L216.87-23.05 215.45-21.97Q213.33-24.61 209.99-24.61L209.99-24.61Q207.08-24.61 205.02-22.55 202.95-20.48 202.95-17.58 202.95-14.67 205.02-12.61 207.08-10.55 209.99-10.55L209.99-10.55Q213.72-10.55 216.31-12.62L216.31-12.62ZM226.86 0L226.86-17.82 228.61-17.82 228.61 0 226.86 0ZM223.34 0L223.34-17.82 225.1-17.82 225.1 0 223.34 0ZM219.82 0L219.82-17.82 221.58-17.82 221.58 0 219.82 0ZM243.48 0L243.48-35.16 245.24-35.16 245.24 0 243.48 0ZM239.97 0L239.97-35.16 241.72-35.16 241.72 0 239.97 0ZM236.45 0L236.45-35.16 238.21-35.16 238.21 0 236.45 0ZM232.93 0L232.93-35.16 234.69-35.16 234.69 0 232.93 0ZM277.56-35.16L277.56-14.18 275.81-17.38 275.81-35.16 277.56-35.16ZM281.08-35.16L281.08-8.11 279.32-11.08 279.32-35.16 281.08-35.16ZM256.86 0L256.86-20.97 258.62-17.77 258.62 0 256.86 0ZM253.34 0L253.34-27.29 255.1-24.07 255.1 0 253.34 0ZM274.32 0L253.96-35.16 256.01-35.16 276.37 0 274.32 0ZM278.42 0L258.11-35.16 260.18-35.16 280.52 0 278.42 0ZM282.52 0L262.23-35.16 264.28-35.16 282.84-3.05 282.84-35.16 284.59-35.16 284.59 0 282.52 0ZM270.19 0L251.59-32.13 251.59 0 249.83 0 249.83-35.16 251.93-35.16 272.22 0 270.19 0ZM313.92-12.62L313.92-17.82 315.67-17.82 315.67 0Q311.77 1.76 307.59 1.76L307.59 1.76Q303.66 1.76 300.09 0.22 296.51-1.32 293.92-3.91 291.33-6.49 289.79-10.07 288.26-13.65 288.26-17.58 288.26-21.51 289.79-25.09 291.33-28.66 293.92-31.25 296.51-33.84 300.09-35.38 303.66-36.91 307.59-36.91L307.59-36.91Q312.08-36.91 316.04-34.97 320-33.03 322.71-29.64L322.71-29.64 321.29-28.59Q318.82-31.64 315.25-33.4 311.67-35.16 307.59-35.16L307.59-35.16Q304.03-35.16 300.77-33.76 297.51-32.37 295.15-30.02 292.8-27.66 291.41-24.4 290.01-21.14 290.01-17.58 290.01-14.01 291.41-10.75 292.8-7.5 295.15-5.14 297.51-2.78 300.77-1.39 304.03 0 307.59 0L307.59 0Q310.89 0 313.92-1.17L313.92-1.17 313.92-2.98Q310.86-1.76 307.59-1.76L307.59-1.76Q304.37-1.76 301.44-3.02 298.51-4.27 296.4-6.38 294.29-8.5 293.03-11.43 291.77-14.36 291.77-17.58 291.77-20.8 293.03-23.73 294.29-26.66 296.4-28.77 298.51-30.88 301.44-32.14 304.37-33.4 307.59-33.4L307.59-33.4Q311.28-33.4 314.51-31.81 317.75-30.22 319.97-27.44L319.97-27.44 318.6-26.34Q316.63-28.81 313.75-30.22 310.86-31.64 307.59-31.64L307.59-31.64Q304.74-31.64 302.14-30.53 299.54-29.42 297.64-27.53 295.75-25.63 294.64-23.03 293.53-20.43 293.53-17.58 293.53-14.72 294.64-12.12 295.75-9.52 297.64-7.63 299.54-5.74 302.14-4.63 304.74-3.52 307.59-3.52L307.59-3.52Q310.96-3.52 313.92-4.88L313.92-4.88 313.92-6.69Q310.96-5.27 307.59-5.27L307.59-5.27Q304.25-5.27 301.42-6.92 298.58-8.57 296.94-11.4 295.29-14.23 295.29-17.58 295.29-20.92 296.94-23.75 298.58-26.59 301.42-28.23 304.25-29.88 307.59-29.88L307.59-29.88Q310.45-29.88 312.98-28.65 315.5-27.42 317.21-25.24L317.21-25.24 315.82-24.17Q314.36-26.03 312.19-27.08 310.03-28.13 307.59-28.13L307.59-28.13Q303.22-28.13 300.13-25.02 297.05-21.92 297.05-17.58 297.05-13.23 300.13-10.13 303.22-7.03 307.59-7.03L307.59-7.03Q311.01-7.03 313.92-8.69L313.92-8.69 313.92-10.47Q311.06-8.79 307.59-8.79L307.59-8.79Q303.96-8.79 301.38-11.36 298.8-13.94 298.8-17.58 298.8-21.22 301.38-23.79 303.96-26.37 307.59-26.37L307.59-26.37Q309.64-26.37 311.45-25.48 313.26-24.58 314.48-23.05L314.48-23.05 313.06-21.97Q310.94-24.61 307.59-24.61L307.59-24.61Q304.69-24.61 302.62-22.55 300.56-20.48 300.56-17.58 300.56-14.67 302.62-12.61 304.69-10.55 307.59-10.55L307.59-10.55Q311.33-10.55 313.92-12.62L313.92-12.62ZM324.46 0L324.46-17.82 326.22-17.82 326.22 0 324.46 0ZM320.95 0L320.95-17.82 322.71-17.82 322.71 0 320.95 0ZM317.43 0L317.43-17.82 319.19-17.82 319.19 0 317.43 0ZM363.5-17.77L363.5-17.77 363.45-17.8Q366.21-20.48 366.21-24.34L366.21-24.34Q366.21-28 363.49-30.7 360.77-33.4 357.06-33.4L357.06-33.4 337.72-33.4 337.72 0 335.96 0 335.96-35.16 357.06-35.16Q359.94-35.16 362.46-33.68 364.99-32.2 366.48-29.7 367.97-27.2 367.97-24.34L367.97-24.34Q367.97-20.43 365.87-17.63L365.87-17.63Q367.97-14.72 367.97-11.23L367.97-11.23Q367.97-7.89 366.46-5.33 364.94-2.78 362.49-1.49 360.03-0.2 357.06-0.2L357.06-0.2 345.95-0.2 345.95-1.95 357.06-1.95Q360.82-1.95 363.51-4.63 366.21-7.3 366.21-11.23L366.21-11.23Q366.21-13.04 365.43-14.79 364.65-16.55 363.48-17.75L363.48-17.75Q363.48-17.77 363.5-17.77ZM357.06-8.98L357.06-8.98 345.95-8.98 345.95-7.23 357.06-7.23Q358.67-7.23 359.8-8.31 360.94-9.4 360.94-11.23L360.94-11.23Q360.94-12.82 359.77-14.03 358.59-15.23 357.06-15.23L357.06-15.23 345.92-15.23 345.92-13.48 357.06-13.48Q357.89-13.48 358.53-12.79 359.18-12.11 359.18-11.23L359.18-11.23Q359.18-10.16 358.57-9.57 357.96-8.98 357.06-8.98ZM357.06-5.47L357.06-5.47 345.95-5.47 345.95-3.71 357.06-3.71Q360.08-3.71 362.27-5.87 364.45-8.03 364.45-11.23L364.45-11.23Q364.45-13.26 363.37-15.05 362.28-16.85 360.5-17.82L360.5-17.82Q362.28-18.75 363.37-20.47 364.45-22.19 364.45-24.34L364.45-24.34Q364.45-27.27 362.24-29.46 360.03-31.64 357.06-31.64L357.06-31.64 339.48-31.64 339.48 0 341.24 0 341.24-29.88 357.06-29.88Q359.3-29.88 361-28.21 362.7-26.54 362.7-24.34L362.7-24.34Q362.7-21.9 361.04-20.32 359.38-18.75 357.06-18.75L357.06-18.75 351.68-18.75 345.95-18.75 345.95-16.99 351.68-16.99 357.06-16.99Q359.3-16.99 361-15.26 362.7-13.53 362.7-11.23L362.7-11.23Q362.7-8.69 361.04-7.08 359.38-5.47 357.06-5.47ZM357.06-22.27L357.06-22.27 345.95-22.27 345.95-20.51 357.06-20.51Q358.69-20.51 359.81-21.55 360.94-22.58 360.94-24.34L360.94-24.34Q360.94-25.83 359.77-26.98 358.59-28.13 357.06-28.13L357.06-28.13 342.99-28.13 342.99 0 344.75 0 344.75-26.37 357.06-26.37Q357.89-26.37 358.53-25.74 359.18-25.12 359.18-24.34L359.18-24.34Q359.18-23.34 358.57-22.8 357.96-22.27 357.06-22.27ZM392.85-11.87L403.91-35.16 405.66-35.16 394.6-11.87 394.6 0 392.85 0 392.85-11.87ZM389.33-11.87L400.39-35.16 402.15-35.16 391.09-11.87 391.09 0 389.33 0 389.33-11.87ZM385.82-11.87L396.88-35.16 398.63-35.16 387.57-11.87 387.57 0 385.82 0 385.82-11.87ZM383.15-13.65L393.36-35.16 395.12-35.16 384.06-11.87 384.06 0 382.3 0 382.3-11.87 370.51-35.16 372.27-35.16 383.15-13.65ZM383.64-16.65L374.05-35.16 375.81-35.16 384.52-18.58 383.64-16.65ZM385.38-20.51L377.56-35.16 379.35-35.16 386.28-22.44 385.38-20.51ZM387.16-24.34L381.13-35.16 382.89-35.16 388.04-26.27 387.16-24.34ZM424.63 0L424.63-35.16 426.39-35.16 426.39 0 424.63 0ZM421.12 0L421.12-35.16 422.88-35.16 422.88 0 421.12 0ZM417.6 0L417.6-35.16 419.36-35.16 419.36 0 417.6 0ZM414.09 0L414.09-35.16 415.84-35.16 415.84 0 414.09 0ZM451.27-10.55L441.53-10.55 441.53-24.61Q441.53-24.61 451.27-24.61L451.27-24.61Q453.98-24.61 455.92-22.56 457.86-20.51 457.86-17.63L457.86-17.63Q457.86-14.65 455.93-12.6 454-10.55 451.27-10.55L451.27-10.55ZM443.29-22.85L443.29-12.3 451.27-12.3Q453.25-12.3 454.65-13.84 456.05-15.38 456.05-17.63L456.05-17.63Q456.05-19.78 454.65-21.31 453.25-22.85 451.27-22.85L451.27-22.85 443.29-22.85ZM439.77-26.37L439.77-8.79 451.27-8.79Q454.74-8.79 457.2-11.36 459.67-13.94 459.67-17.63L459.67-17.63Q459.67-21.24 457.19-23.8 454.71-26.37 451.27-26.37L451.27-26.37 439.77-26.37ZM451.27-7.03L438.01-7.03 438.01-28.13 451.27-28.13Q455.44-28.13 458.46-25.04 461.47-21.95 461.47-17.63L461.47-17.63Q461.47-13.21 458.47-10.12 455.47-7.03 451.27-7.03L451.27-7.03ZM436.25-29.88L436.25-5.27 451.27-5.27Q454.49-5.27 457.25-6.91 460.01-8.54 461.65-11.4 463.28-14.26 463.28-17.63L463.28-17.63Q463.28-20.92 461.65-23.75 460.01-26.59 457.24-28.23 454.47-29.88 451.27-29.88L451.27-29.88 436.25-29.88ZM451.27-3.52L434.5-3.52 434.5-31.64 451.27-31.64Q454.96-31.64 458.14-29.76 461.33-27.88 463.21-24.65 465.09-21.41 465.09-17.63L465.09-17.63Q465.09-13.79 463.21-10.53 461.33-7.28 458.14-5.4 454.96-3.52 451.27-3.52L451.27-3.52ZM432.74-33.4L432.74-1.76 451.27-1.76Q455.44-1.76 459.03-3.87 462.62-5.98 464.76-9.64 466.89-13.31 466.89-17.63L466.89-17.63Q466.89-21.88 464.76-25.52 462.62-29.17 459.02-31.29 455.42-33.4 451.27-33.4L451.27-33.4 432.74-33.4ZM451.27 0L451.27 0 430.98 0 430.98-35.16 451.27-35.16Q455.91-35.16 459.92-32.8 463.94-30.44 466.32-26.4 468.7-22.36 468.7-17.63L468.7-17.63Q468.7-14.04 467.3-10.77 465.89-7.5 463.54-5.14 461.18-2.78 457.96-1.39 454.74 0 451.27 0ZM483.18 0L483.18-35.16 484.94-35.16 484.94 0 483.18 0ZM479.66 0L479.66-35.16 481.42-35.16 481.42 0 479.66 0ZM476.15 0L476.15-35.16 477.91-35.16 477.91 0 476.15 0ZM472.63 0L472.63-35.16 474.39-35.16 474.39 0 472.63 0ZM502.97-22.55Q500.9-20.48 500.9-17.58 500.9-14.67 502.97-12.61 505.03-10.55 507.93-10.55 510.84-10.55 512.9-12.61 514.97-14.67 514.97-17.58 514.97-20.48 512.9-22.55 510.84-24.61 507.93-24.61 505.03-24.61 502.97-22.55ZM501.72-11.36Q499.15-13.94 499.15-17.58 499.15-21.22 501.72-23.79 504.3-26.37 507.93-26.37 511.57-26.37 514.15-23.79 516.72-21.22 516.72-17.58 516.72-13.94 514.15-11.36 511.57-8.79 507.93-8.79 504.3-8.79 501.72-11.36ZM500.48-25.02Q497.39-21.92 497.39-17.58 497.39-13.23 500.48-10.13 503.56-7.03 507.93-7.03 512.3-7.03 515.39-10.13 518.48-13.23 518.48-17.58 518.48-21.92 515.39-25.02 512.3-28.13 507.93-28.13 503.56-28.13 500.48-25.02ZM497.28-11.4Q495.63-14.23 495.63-17.58 495.63-20.92 497.28-23.75 498.93-26.59 501.76-28.23 504.59-29.88 507.93-29.88 511.28-29.88 514.11-28.23 516.94-26.59 518.59-23.75 520.24-20.92 520.24-17.58 520.24-14.23 518.59-11.4 516.94-8.57 514.11-6.92 511.28-5.27 507.93-5.27 504.59-5.27 501.76-6.92 498.93-8.57 497.28-11.4ZM494.98-23.03Q493.87-20.43 493.87-17.58 493.87-14.72 494.98-12.12 496.09-9.52 497.99-7.63 499.88-5.74 502.48-4.63 505.08-3.52 507.93-3.52 510.79-3.52 513.39-4.63 515.99-5.74 517.88-7.63 519.78-9.52 520.89-12.12 522-14.72 522-17.58 522-20.43 520.89-23.03 519.78-25.63 517.88-27.53 515.99-29.42 513.39-30.53 510.79-31.64 507.93-31.64 505.08-31.64 502.48-30.53 499.88-29.42 497.99-27.53 496.09-25.63 494.98-23.03ZM493.37-11.43Q492.11-14.36 492.11-17.58 492.11-20.8 493.37-23.73 494.63-26.66 496.74-28.77 498.85-30.88 501.78-32.14 504.71-33.4 507.93-33.4 511.16-33.4 514.09-32.14 517.02-30.88 519.13-28.77 521.24-26.66 522.5-23.73 523.75-20.8 523.75-17.58 523.75-14.36 522.5-11.43 521.24-8.5 519.13-6.38 517.02-4.27 514.09-3.02 511.16-1.76 507.93-1.76 504.71-1.76 501.78-3.02 498.85-4.27 496.74-6.38 494.63-8.5 493.37-11.43ZM491.75-24.4Q490.36-21.14 490.36-17.58 490.36-14.01 491.75-10.75 493.14-7.5 495.5-5.14 497.85-2.78 501.11-1.39 504.37 0 507.93 0 511.5 0 514.76-1.39 518.02-2.78 520.37-5.14 522.73-7.5 524.12-10.75 525.51-14.01 525.51-17.58 525.51-21.14 524.12-24.4 522.73-27.66 520.37-30.02 518.02-32.37 514.76-33.76 511.5-35.16 507.93-35.16 504.37-35.16 501.11-33.76 497.85-32.37 495.5-30.02 493.14-27.66 491.75-24.4ZM490.14-10.07Q488.6-13.65 488.6-17.58 488.6-21.51 490.14-25.09 491.67-28.66 494.26-31.25 496.85-33.84 500.43-35.38 504-36.91 507.93-36.91 511.87-36.91 515.44-35.38 519.02-33.84 521.61-31.25 524.19-28.66 525.73-25.09 527.27-21.51 527.27-17.58 527.27-13.65 525.73-10.07 524.19-6.49 521.61-3.91 519.02-1.32 515.44 0.22 511.87 1.76 507.93 1.76 504 1.76 500.43 0.22 496.85-1.32 494.26-3.91 491.67-6.49 490.14-10.07ZM537.43 0L537.43-25.42 539.18-25.42 539.18 0 537.43 0ZM556.76-33.4L530.4-33.4 530.4-35.16 556.76-35.16 556.76-33.4ZM556.76-29.88L530.4-29.88 530.4-31.64 556.76-31.64 556.76-29.88ZM556.76-26.37L530.4-26.37 530.4-28.13 556.76-28.13 556.76-26.37ZM547.97 0L547.97-25.42 549.73-25.42 549.73 0 547.97 0ZM544.46 0L544.46-25.42 546.22-25.42 546.22 0 544.46 0ZM540.94 0L540.94-25.42 542.7-25.42 542.7 0 540.94 0ZM576.78-16.72L576.78-16.72 574-16.72Q568.87-16.72 566.11-18.81 563.35-20.9 563.35-24.56L563.35-24.56Q563.35-27.98 566.6-30.26 569.85-32.54 575.71-32.54L575.71-32.54Q579.61-32.54 583-31.47 586.38-30.4 588.62-28.44L588.62-28.44 587.26-27.34Q585.25-28.98 582.23-29.88 579.2-30.79 575.71-30.79L575.71-30.79Q570.56-30.79 567.83-29.03 565.11-27.27 565.11-24.56L565.11-24.56Q565.11-21.63 567.35-20.06 569.58-18.48 574-18.48L574-18.48 576.68-18.48Q581.88-18.48 584.66-16.39 587.43-14.31 587.43-10.64L587.43-10.64Q587.43-7.23 584.18-4.94 580.93-2.66 575.07-2.66L575.07-2.66Q571.17-2.66 567.79-3.74 564.4-4.81 562.16-6.76L562.16-6.76 563.53-7.86Q565.53-6.23 568.55-5.32 571.58-4.42 575.07-4.42L575.07-4.42Q580.22-4.42 582.95-6.18 585.67-7.93 585.67-10.64L585.67-10.64Q585.67-13.57 583.44-15.15 581.2-16.72 576.78-16.72ZM576.78-13.21L576.78-13.21 574-13.21Q567.21-13.21 563.53-16.3 559.84-19.38 559.84-24.56L559.84-24.56Q559.84-26.93 560.89-29 561.94-31.08 563.9-32.65 565.87-34.23 568.92-35.14 571.97-36.06 575.71-36.06L575.71-36.06Q580.42-36.06 584.52-34.63 588.62-33.2 591.36-30.64L591.36-30.64 589.94-29.59Q587.45-31.84 583.72-33.07 579.98-34.3 575.71-34.3L575.71-34.3Q569.12-34.3 565.36-31.52 561.6-28.74 561.6-24.56L561.6-24.56Q561.6-20.14 564.82-17.55 568.04-14.97 574-14.97L574-14.97 576.68-14.97Q583.91-14.97 583.91-10.64L583.91-10.64Q583.91-8.69 581.7-7.43 579.49-6.18 575.07-6.18L575.07-6.18Q571.97-6.18 569.31-6.9 566.65-7.62 564.92-8.96L564.92-8.96 566.31-10.03Q569.36-7.93 575.07-7.93L575.07-7.93Q578.74-7.93 580.44-8.69 582.15-9.45 582.15-10.64L582.15-10.64Q582.15-12.04 580.96-12.62 579.76-13.21 576.78-13.21ZM576.78-20.24L576.78-20.24 574-20.24Q566.87-20.24 566.87-24.56L566.87-24.56Q566.87-26.51 569.08-27.77 571.29-29.03 575.71-29.03L575.71-29.03Q578.81-29.03 581.47-28.31 584.13-27.59 585.86-26.25L585.86-26.25 584.47-25.17Q581.42-27.27 575.71-27.27L575.71-27.27Q572.05-27.27 570.34-26.51 568.63-25.76 568.63-24.56L568.63-24.56Q568.63-23.17 569.82-22.58 571.02-22 574-22L574-22 576.78-22Q583.57-22 587.26-18.91 590.94-15.82 590.94-10.64L590.94-10.64Q590.94-8.28 589.89-6.2 588.84-4.13 586.88-2.55 584.91-0.98 581.86-0.06 578.81 0.85 575.07 0.85L575.07 0.85Q570.36 0.85 566.26-0.57 562.16-2 559.42-4.57L559.42-4.57 560.84-5.62Q563.33-3.37 567.07-2.14 570.8-0.9 575.07-0.9L575.07-0.9Q581.67-0.9 585.42-3.69 589.18-6.47 589.18-10.64L589.18-10.64Q589.18-15.06 585.96-17.65 582.74-20.24 576.78-20.24Z" opacity="1" transform="matrix(1,0,0,1,0,0)" fill="#000000" class="undefined-text-1" data-fill-palette-color="secondary" id="text-1"></path></svg></g></svg></g></svg></g></svg></g><g transform="matrix(1,0,0,1,47.580861578561354,64.01685619242119)"><svg viewBox="0 0 128.8382768428773 155.67820008507422" height="155.67820008507422" width="128.8382768428773"><g><svg xmlns="http://www.w3.org/2000/svg" xmlns:xlink="http://www.w3.org/1999/xlink" version="1.1" x="0" y="0" viewBox="14.982000350952148 4.273293495178223 76.14830017089844 92.01171112060547" enable-background="new 0 0 100 100" xml:space="preserve" height="155.67820008507422" width="128.8382768428773" class="icon-icon-0" data-fill-palette-color="accent" id="icon-0"><path d="M83.42 42.006c1.411-3.235 1.998-4.545 1.65-9.393-0.565-7.881-3.885-14.797-7.973-19.458C66.777 1.388 39.164 1.636 27.234 11.988c-5.861 5.084-12.032 13.047-12.243 23.172-0.267 12.797 5.456 21.061 10.712 29.076 1.683 2.564 3.964 5.666 4.372 8.744 0.85 6.426-0.081 11.674-2.775 15.74-1.888 2.85-3.598 5.33-5.4 7.565h42.706c-2.104-3.88-2.847-10.274 0.078-10.267 4.332 0.125 7.42 1.17 11.74 0.517 3.262-0.496 5.276-1.394 5.903-4.373 0.733-3.489-1.201-3.955-0.875-5.685 0.448-2.388 1.917-3.572 2.661-6.34 1.011-3.763-0.848-6.039 0.746-6.809 2.104-1.321 3.938-1.238 5.773-3.029C93.668 57.455 81.771 46.229 83.42 42.006zM49.43 21.315c0.671-1.162 0.406-2.05 0.705-2.05 0.125 0 0.351 0.155 0.784 0.513 1.609 1.321 2.24 4.194 1.078 5.674-0.284 0.359-0.776 0.441-0.776 0.441 0.188-0.013 0.364-0.026 0.521-0.038 0.675-0.051 0.339-0.103 1.021-0.103 1.904 0 3.447 1.544 3.449 3.446 0 0.183-0.019 0.36-0.045 0.534-0.039 0.246-0.103 0.483-0.19 0.709-0.097 0.251-0.222 0.49-0.372 0.71-0.621 0.902-1.66 1.495-2.84 1.495-0.077 0-0.159 0-0.245 0l-3.596 0.003c-1.678-0.006-3.016-0.581-3.852-1.499-0.2-0.218-0.369-0.454-0.51-0.709-0.124-0.225-0.22-0.462-0.294-0.709-0.137-0.462-0.192-0.959-0.143-1.482C44.534 23.878 47.904 23.958 49.43 21.315zM42.369 31.153h0.963c0.188 0.337 0.412 0.657 0.677 0.95 1.145 1.262 2.889 1.96 4.908 1.967l3.6-0.003h0.129 0.115c1.988 0 3.7-1.2 4.454-2.915h1.814c2.09 0 3.783 1.694 3.784 3.784 0 0.503-0.101 0.98-0.278 1.419-0.102 0.251-0.229 0.489-0.379 0.71-0.179 0.263-0.393 0.5-0.63 0.709-0.667 0.587-1.539 0.945-2.496 0.945H42.369c-0.958 0-1.83-0.358-2.496-0.945-0.238-0.21-0.452-0.447-0.63-0.71-0.151-0.221-0.277-0.458-0.379-0.709-0.177-0.438-0.277-0.917-0.277-1.419C38.586 32.846 40.279 31.153 42.369 31.153zM64.313 47.23H37.084c-2.612 0-4.729-2.117-4.729-4.729s2.118-4.729 4.729-4.729h0.93c0.93 1.421 2.532 2.363 4.354 2.363H59.03c1.822 0 3.425-0.942 4.354-2.363h0.931c2.612 0 4.729 2.117 4.729 4.729S66.925 47.23 64.313 47.23z" fill="#000000" data-fill-palette-color="accent"></path></svg></g></svg></g><g></g></svg></g></svg></g></svg></g></svg></g></svg><rect width="448" height="360" fill="none" stroke="none" visibility="hidden"></rect></g></svg></g></svg>